REM DIRINDEX 1\2\4\18,1\2\4\19,1\2\5\20,1\2\5\21,1\2\6\22,1\2\7\23,1\2\8\24,1\2\8\25,1\2\9\26,1\2\10\27,1\3\11\28,1\3\11\29,1\3\11\30,1\3\11\31,1\3\12\32,1\3\12\33,1\3\12\34,1\3\12\35,1\3\13\36,1\3\13\37,1\3\14\38,1\3\14\39,1\3\15\40,1\3\15\41,1\3\15\42,1\3\16\43,1\3\16\44,1\3\17\45,1\3\17\46
REM DIRNAME folder01,folder02,folder03,folder04,folder05,folder06,folder07,folder08,folder09,folder10,folder11,folder12,folder13,folder14,folder15,folder16,folder17,folder18,folder19,folder20,folder21,folder22,folder23,folder24,folder25,folder26,folder27,folder28,folder29,folder30,folder31,folder32,folder33,folder34,folder35,folder36,folder37,folder38,folder39,folder40,folder41,folder42,folder43,folder44,folder45,folder46
TITLE ""
FILE "16.mp3" MP3
  TRACK 01 AUDIO
    TITLE "0:"
    INDEX 01 00:00:00
  TRACK 02 AUDIO
    TITLE "26:cjc024_2676"
    INDEX 01 00:00:15
  TRACK 03 AUDIO
    TITLE "0:"
    INDEX 01 00:01:64
  TRACK 04 AUDIO
    TITLE "26:cjc024_2677"
    INDEX 01 00:02:42
  TRACK 05 AUDIO
    TITLE "0:"
    INDEX 01 00:03:59
  TRACK 06 AUDIO
    TITLE "26:cjc024_2678"
    INDEX 01 00:04:35
  TRACK 07 AUDIO
    TITLE "0:"
    INDEX 01 00:05:48
  TRACK 08 AUDIO
    TITLE "26:cjc024_2679"
    INDEX 01 00:06:33
  TRACK 09 AUDIO
    TITLE "0:"
    INDEX 01 00:07:51
  TRACK 10 AUDIO
    TITLE "26:cjc024_2680"
    INDEX 01 00:08:26
  TRACK 11 AUDIO
    TITLE "0:"
    INDEX 01 00:09:51
  TRACK 12 AUDIO
    TITLE "26:cjc024_2681"
    INDEX 01 00:10:31
  TRACK 13 AUDIO
    TITLE "0:"
    INDEX 01 00:11:70
  TRACK 14 AUDIO
    TITLE "26:cjc024_2682"
    INDEX 01 00:12:52
  TRACK 15 AUDIO
    TITLE "0:"
    INDEX 01 00:13:59
  TRACK 16 AUDIO
    TITLE "26:cjc024_2683"
    INDEX 01 00:14:41
  TRACK 17 AUDIO
    TITLE "0:"
    INDEX 01 00:16:20
  TRACK 18 AUDIO
    TITLE "26:cjc024_2684"
    INDEX 01 00:16:71
  TRACK 19 AUDIO
    TITLE "0:"
    INDEX 01 00:18:13
  TRACK 20 AUDIO
    TITLE "26:cjc024_2685"
    INDEX 01 00:18:64
  TRACK 21 AUDIO
    TITLE "0:"
    INDEX 01 00:20:16
  TRACK 22 AUDIO
    TITLE "26:cjc024_2686"
    INDEX 01 00:20:65
  TRACK 23 AUDIO
    TITLE "0:"
    INDEX 01 00:22:19
  TRACK 24 AUDIO
    TITLE "26:cjc024_2687"
    INDEX 01 00:22:70
  TRACK 25 AUDIO
    TITLE "0:"
    INDEX 01 00:24:00
  TRACK 26 AUDIO
    TITLE "26:cjc024_2688"
    INDEX 01 00:24:55
  TRACK 27 AUDIO
    TITLE "0:"
    INDEX 01 00:26:09
  TRACK 28 AUDIO
    TITLE "26:cjc024_2689"
    INDEX 01 00:26:60
  TRACK 29 AUDIO
    TITLE "0:"
    INDEX 01 00:28:29
  TRACK 30 AUDIO
    TITLE "26:cjc024_2690"
    INDEX 01 00:29:09
  TRACK 31 AUDIO
    TITLE "0:"
    INDEX 01 00:30:22
  TRACK 32 AUDIO
    TITLE "26:cjc024_2691"
    INDEX 01 00:30:71
  TRACK 33 AUDIO
    TITLE "0:"
    INDEX 01 00:32:29
  TRACK 34 AUDIO
    TITLE "26:cjc024_2692"
    INDEX 01 00:33:07
  TRACK 35 AUDIO
    TITLE "0:"
    INDEX 01 00:35:33
  TRACK 36 AUDIO
    TITLE "26:cjc024_2693"
    INDEX 01 00:36:09
  TRACK 37 AUDIO
    TITLE "0:"
    INDEX 01 00:37:44
  TRACK 38 AUDIO
    TITLE "26:cjc024_2694"
    INDEX 01 00:38:20
  TRACK 39 AUDIO
    TITLE "0:"
    INDEX 01 00:40:03
  TRACK 40 AUDIO
    TITLE "26:cjc024_2695"
    INDEX 01 00:40:54
  TRACK 41 AUDIO
    TITLE "0:"
    INDEX 01 00:42:14
  TRACK 42 AUDIO
    TITLE "26:cjc024_2696"
    INDEX 01 00:42:72
  TRACK 43 AUDIO
    TITLE "0:"
    INDEX 01 00:44:20
  TRACK 44 AUDIO
    TITLE "26:cjc024_2697"
    INDEX 01 00:44:69
  TRACK 45 AUDIO
    TITLE "0:"
    INDEX 01 00:46:19
  TRACK 46 AUDIO
    TITLE "26:cjc024_2698"
    INDEX 01 00:47:01
  TRACK 47 AUDIO
    TITLE "0:"
    INDEX 01 00:48:48
  TRACK 48 AUDIO
    TITLE "26:cjc024_2699"
    INDEX 01 00:49:23
  TRACK 49 AUDIO
    TITLE "0:"
    INDEX 01 00:50:66
  TRACK 50 AUDIO
    TITLE "26:cjc024_2700"
    INDEX 01 00:51:42
  TRACK 51 AUDIO
    TITLE "0:"
    INDEX 01 00:52:65
  TRACK 52 AUDIO
    TITLE "26:cjc024_2701"
    INDEX 01 00:53:47
  TRACK 53 AUDIO
    TITLE "0:"
    INDEX 01 00:55:22
  TRACK 54 AUDIO
    TITLE "26:cjc024_2702"
    INDEX 01 00:55:71
  TRACK 55 AUDIO
    TITLE "0:"
    INDEX 01 00:57:09
  TRACK 56 AUDIO
    TITLE "26:cjc024_2703"
    INDEX 01 00:57:58
  TRACK 57 AUDIO
    TITLE "0:"
    INDEX 01 00:59:26
  TRACK 58 AUDIO
    TITLE "26:cjc024_2704"
    INDEX 01 01:00:02
  TRACK 59 AUDIO
    TITLE "0:"
    INDEX 01 01:01:15
  TRACK 60 AUDIO
    TITLE "26:cjc024_2705"
    INDEX 01 01:01:74
  TRACK 61 AUDIO
    TITLE "0:"
    INDEX 01 01:03:12
  TRACK 62 AUDIO
    TITLE "26:cjc024_2706"
    INDEX 01 01:03:59
  TRACK 63 AUDIO
    TITLE "0:"
    INDEX 01 01:05:05
  TRACK 64 AUDIO
    TITLE "26:cjc024_2707"
    INDEX 01 01:05:56
  TRACK 65 AUDIO
    TITLE "0:"
    INDEX 01 01:07:15
  TRACK 66 AUDIO
    TITLE "26:cjc024_2708"
    INDEX 01 01:07:68
  TRACK 67 AUDIO
    TITLE "0:"
    INDEX 01 01:09:09
  TRACK 68 AUDIO
    TITLE "26:cjc024_2709"
    INDEX 01 01:09:63
  TRACK 69 AUDIO
    TITLE "0:"
    INDEX 01 01:11:13
  TRACK 70 AUDIO
    TITLE "26:cjc024_2710"
    INDEX 01 01:11:66
  TRACK 71 AUDIO
    TITLE "0:"
    INDEX 01 01:13:06
  TRACK 72 AUDIO
    TITLE "26:cjc024_2711"
    INDEX 01 01:13:67
  TRACK 73 AUDIO
    TITLE "0:"
    INDEX 01 01:15:62
  TRACK 74 AUDIO
    TITLE "26:cjc024_2712"
    INDEX 01 01:16:38
  TRACK 75 AUDIO
    TITLE "0:"
    INDEX 01 01:17:65
  TRACK 76 AUDIO
    TITLE "26:cjc024_2713"
    INDEX 01 01:18:39
  TRACK 77 AUDIO
    TITLE "0:"
    INDEX 01 01:20:02
  TRACK 78 AUDIO
    TITLE "26:cjc024_2714"
    INDEX 01 01:20:55
  TRACK 79 AUDIO
    TITLE "0:"
    INDEX 01 01:23:52
  TRACK 80 AUDIO
    TITLE "26:cjc024_2715"
    INDEX 01 01:24:26
  TRACK 81 AUDIO
    TITLE "0:"
    INDEX 01 01:25:41
  TRACK 82 AUDIO
    TITLE "26:cjc024_2716"
    INDEX 01 01:26:17
  TRACK 83 AUDIO
    TITLE "0:"
    INDEX 01 01:27:59
  TRACK 84 AUDIO
    TITLE "26:cjc024_2717"
    INDEX 01 01:28:37
  TRACK 85 AUDIO
    TITLE "0:"
    INDEX 01 01:29:68
  TRACK 86 AUDIO
    TITLE "26:cjc024_2718"
    INDEX 01 01:30:44
  TRACK 87 AUDIO
    TITLE "0:"
    INDEX 01 01:32:21
  TRACK 88 AUDIO
    TITLE "26:cjc024_2719"
    INDEX 01 01:32:70
  TRACK 89 AUDIO
    TITLE "0:"
    INDEX 01 01:34:20
  TRACK 90 AUDIO
    TITLE "26:cjc024_2720"
    INDEX 01 01:34:71
  TRACK 91 AUDIO
    TITLE "0:"
    INDEX 01 01:36:07
  TRACK 92 AUDIO
    TITLE "26:cjc024_2721"
    INDEX 01 01:36:58
  TRACK 93 AUDIO
    TITLE "0:"
    INDEX 01 01:38:16
  TRACK 94 AUDIO
    TITLE "26:cjc024_2722"
    INDEX 01 01:38:67
  TRACK 95 AUDIO
    TITLE "0:"
    INDEX 01 01:40:21
  TRACK 96 AUDIO
    TITLE "26:cjc024_2723"
    INDEX 01 01:40:74
  TRACK 97 AUDIO
    TITLE "0:"
    INDEX 01 01:42:18
  TRACK 98 AUDIO
    TITLE "26:cjc024_2724"
    INDEX 01 01:42:69
  TRACK 99 AUDIO
    TITLE "0:"
    INDEX 01 01:44:05
  TRACK 100 AUDIO
    TITLE "26:cjc024_2725"
    INDEX 01 01:44:54
  TRACK 101 AUDIO
    TITLE "0:"
    INDEX 01 01:46:08
  TRACK 102 AUDIO
    TITLE "26:cjc024_2726"
    INDEX 01 01:46:59
  TRACK 103 AUDIO
    TITLE "0:"
    INDEX 01 01:48:05
  TRACK 104 AUDIO
    TITLE "26:cjc024_2727"
    INDEX 01 01:48:60
  TRACK 105 AUDIO
    TITLE "0:"
    INDEX 01 01:50:11
  TRACK 106 AUDIO
    TITLE "26:cjc024_2728"
    INDEX 01 01:50:64
  TRACK 107 AUDIO
    TITLE "0:"
    INDEX 01 01:52:24
  TRACK 108 AUDIO
    TITLE "26:cjc024_2729"
    INDEX 01 01:53:04
  TRACK 109 AUDIO
    TITLE "0:"
    INDEX 01 01:54:31
  TRACK 110 AUDIO
    TITLE "26:cjc024_2730"
    INDEX 01 01:55:05
  TRACK 111 AUDIO
    TITLE "0:"
    INDEX 01 01:56:18
  TRACK 112 AUDIO
    TITLE "26:cjc024_2731"
    INDEX 01 01:56:71
  TRACK 113 AUDIO
    TITLE "0:"
    INDEX 01 01:58:11
  TRACK 114 AUDIO
    TITLE "26:cjc024_2732"
    INDEX 01 01:58:64
  TRACK 115 AUDIO
    TITLE "0:"
    INDEX 01 02:01:11
  TRACK 116 AUDIO
    TITLE "26:cjc024_2733"
    INDEX 01 02:01:62
  TRACK 117 AUDIO
    TITLE "0:"
    INDEX 01 02:02:66
  TRACK 118 AUDIO
    TITLE "26:cjc024_2734"
    INDEX 01 02:03:45
  TRACK 119 AUDIO
    TITLE "0:"
    INDEX 01 02:05:03
  TRACK 120 AUDIO
    TITLE "26:cjc024_2735"
    INDEX 01 02:05:62
  TRACK 121 AUDIO
    TITLE "0:"
    INDEX 01 02:07:04
  TRACK 122 AUDIO
    TITLE "26:cjc024_2736"
    INDEX 01 02:07:63
  TRACK 123 AUDIO
    TITLE "0:"
    INDEX 01 02:09:11
  TRACK 124 AUDIO
    TITLE "26:cjc024_2737"
    INDEX 01 02:09:54
  TRACK 125 AUDIO
    TITLE "0:"
    INDEX 01 02:11:31
  TRACK 126 AUDIO
    TITLE "26:cjc024_2738"
    INDEX 01 02:12:07
  TRACK 127 AUDIO
    TITLE "0:"
    INDEX 01 02:13:26
  TRACK 128 AUDIO
    TITLE "26:cjc024_2739"
    INDEX 01 02:14:06
  TRACK 129 AUDIO
    TITLE "0:"
    INDEX 01 02:15:51
  TRACK 130 AUDIO
    TITLE "26:cjc024_2740"
    INDEX 01 02:16:24
  TRACK 131 AUDIO
    TITLE "0:"
    INDEX 01 02:17:55
  TRACK 132 AUDIO
    TITLE "26:cjc024_2741"
    INDEX 01 02:18:29
  TRACK 133 AUDIO
    TITLE "0:"
    INDEX 01 02:19:52
  TRACK 134 AUDIO
    TITLE "26:cjc024_2742"
    INDEX 01 02:20:26
  TRACK 135 AUDIO
    TITLE "0:"
    INDEX 01 02:21:57
  TRACK 136 AUDIO
    TITLE "26:cjc024_2743"
    INDEX 01 02:22:33
  TRACK 137 AUDIO
    TITLE "0:"
    INDEX 01 02:23:72
  TRACK 138 AUDIO
    TITLE "26:cjc024_2744"
    INDEX 01 02:24:46
  TRACK 139 AUDIO
    TITLE "0:"
    INDEX 01 02:25:67
  TRACK 140 AUDIO
    TITLE "26:cjc024_2745"
    INDEX 01 02:26:41
  TRACK 141 AUDIO
    TITLE "0:"
    INDEX 01 02:29:17
  TRACK 142 AUDIO
    TITLE "26:cjc024_2746"
    INDEX 01 02:29:66
  TRACK 143 AUDIO
    TITLE "0:"
    INDEX 01 02:31:34
  TRACK 144 AUDIO
    TITLE "26:cjc024_2747"
    INDEX 01 02:32:10
  TRACK 145 AUDIO
    TITLE "0:"
    INDEX 01 02:33:21
  TRACK 146 AUDIO
    TITLE "26:cjc024_2748"
    INDEX 01 02:34:01
  TRACK 147 AUDIO
    TITLE "0:"
    INDEX 01 02:37:05
  TRACK 148 AUDIO
    TITLE "26:cjc024_2749"
    INDEX 01 02:37:54
  TRACK 149 AUDIO
    TITLE "0:"
    INDEX 01 02:38:65
  TRACK 150 AUDIO
    TITLE "26:cjc024_2750"
    INDEX 01 02:39:41
  TRACK 151 AUDIO
    TITLE "0:"
    INDEX 01 02:40:70
  TRACK 152 AUDIO
    TITLE "26:cjc024_2751"
    INDEX 01 02:41:46
  TRACK 153 AUDIO
    TITLE "0:"
    INDEX 01 02:43:19
  TRACK 154 AUDIO
    TITLE "26:cjc024_2752"
    INDEX 01 02:43:68
  TRACK 155 AUDIO
    TITLE "0:"
    INDEX 01 02:45:54
  TRACK 156 AUDIO
    TITLE "26:cjc024_2753"
    INDEX 01 02:46:30
  TRACK 157 AUDIO
    TITLE "0:"
    INDEX 01 02:47:43
  TRACK 158 AUDIO
    TITLE "26:cjc024_2754"
    INDEX 01 02:48:21
  TRACK 159 AUDIO
    TITLE "0:"
    INDEX 01 02:49:59
  TRACK 160 AUDIO
    TITLE "26:cjc024_2755"
    INDEX 01 02:50:35
  TRACK 161 AUDIO
    TITLE "0:"
    INDEX 01 02:51:52
  TRACK 162 AUDIO
    TITLE "26:cjc024_2756"
    INDEX 01 02:52:30
  TRACK 163 AUDIO
    TITLE "0:"
    INDEX 01 02:53:51
  TRACK 164 AUDIO
    TITLE "26:cjc024_2757"
    INDEX 01 02:54:27
  TRACK 165 AUDIO
    TITLE "0:"
    INDEX 01 02:55:54
  TRACK 166 AUDIO
    TITLE "26:cjc024_2758"
    INDEX 01 02:56:30
  TRACK 167 AUDIO
    TITLE "0:"
    INDEX 01 02:57:53
  TRACK 168 AUDIO
    TITLE "26:cjc024_2759"
    INDEX 01 02:58:27
  TRACK 169 AUDIO
    TITLE "0:"
    INDEX 01 02:59:62
  TRACK 170 AUDIO
    TITLE "26:cjc024_2760"
    INDEX 01 03:00:36
  TRACK 171 AUDIO
    TITLE "0:"
    INDEX 01 03:01:55
  TRACK 172 AUDIO
    TITLE "26:cjc024_2761"
    INDEX 01 03:02:29
  TRACK 173 AUDIO
    TITLE "0:"
    INDEX 01 03:03:55
  TRACK 174 AUDIO
    TITLE "26:cjc024_2762"
    INDEX 01 03:04:33
  TRACK 175 AUDIO
    TITLE "0:"
    INDEX 01 03:05:58
  TRACK 176 AUDIO
    TITLE "26:cjc024_2763"
    INDEX 01 03:06:34
  TRACK 177 AUDIO
    TITLE "0:"
    INDEX 01 03:07:49
  TRACK 178 AUDIO
    TITLE "26:cjc024_2764"
    INDEX 01 03:08:27
  TRACK 179 AUDIO
    TITLE "0:"
    INDEX 01 03:10:14
  TRACK 180 AUDIO
    TITLE "26:cjc024_2765"
    INDEX 01 03:10:67
  TRACK 181 AUDIO
    TITLE "0:"
    INDEX 01 03:12:00
  TRACK 182 AUDIO
    TITLE "26:cjc024_2766"
    INDEX 01 03:12:48
  TRACK 183 AUDIO
    TITLE "0:"
    INDEX 01 03:13:66
  TRACK 184 AUDIO
    TITLE "26:cjc024_2767"
    INDEX 01 03:14:42
  TRACK 185 AUDIO
    TITLE "0:"
    INDEX 01 03:15:70
  TRACK 186 AUDIO
    TITLE "26:cjc024_2768"
    INDEX 01 03:16:44
  TRACK 187 AUDIO
    TITLE "0:"
    INDEX 01 03:17:63
  TRACK 188 AUDIO
    TITLE "26:cjc024_2769"
    INDEX 01 03:18:39
  TRACK 189 AUDIO
    TITLE "0:"
    INDEX 01 03:19:62
  TRACK 190 AUDIO
    TITLE "26:cjc024_2770"
    INDEX 01 03:20:38
  TRACK 191 AUDIO
    TITLE "0:"
    INDEX 01 03:21:63
  TRACK 192 AUDIO
    TITLE "26:cjc024_2771"
    INDEX 01 03:22:39
  TRACK 193 AUDIO
    TITLE "0:"
    INDEX 01 03:23:72
  TRACK 194 AUDIO
    TITLE "26:cjc024_2772"
    INDEX 01 03:24:46
  TRACK 195 AUDIO
    TITLE "0:"
    INDEX 01 03:26:09
  TRACK 196 AUDIO
    TITLE "26:cjc024_2773"
    INDEX 01 03:26:58
  TRACK 197 AUDIO
    TITLE "0:"
    INDEX 01 03:28:02
  TRACK 198 AUDIO
    TITLE "26:cjc024_2774"
    INDEX 01 03:28:53
  TRACK 199 AUDIO
    TITLE "0:"
    INDEX 01 03:30:07
  TRACK 200 AUDIO
    TITLE "26:cjc024_2775"
    INDEX 01 03:30:58
  TRACK 201 AUDIO
    TITLE "0:"
    INDEX 01 03:32:24
  TRACK 202 AUDIO
    TITLE "26:cjc024_2776"
    INDEX 01 03:33:00
  TRACK 203 AUDIO
    TITLE "0:"
    INDEX 01 03:34:19
  TRACK 204 AUDIO
    TITLE "26:cjc024_2777"
    INDEX 01 03:34:70
  TRACK 205 AUDIO
    TITLE "0:"
    INDEX 01 03:36:16
  TRACK 206 AUDIO
    TITLE "26:cjc024_2778"
    INDEX 01 03:36:72
  TRACK 207 AUDIO
    TITLE "0:"
    INDEX 01 03:38:66
  TRACK 208 AUDIO
    TITLE "26:cjc024_2779"
    INDEX 01 03:39:41
  TRACK 209 AUDIO
    TITLE "0:"
    INDEX 01 03:41:29
  TRACK 210 AUDIO
    TITLE "26:cjc024_2780"
    INDEX 01 03:42:08
  TRACK 211 AUDIO
    TITLE "0:"
    INDEX 01 03:43:37
  TRACK 212 AUDIO
    TITLE "26:cjc024_2781"
    INDEX 01 03:44:17
  TRACK 213 AUDIO
    TITLE "0:"
    INDEX 01 03:45:60
  TRACK 214 AUDIO
    TITLE "26:cjc024_2782"
    INDEX 01 03:46:34
  TRACK 215 AUDIO
    TITLE "0:"
    INDEX 01 03:47:72
  TRACK 216 AUDIO
    TITLE "26:cjc024_2783"
    INDEX 01 03:48:56
  TRACK 217 AUDIO
    TITLE "0:"
    INDEX 01 03:50:04
  TRACK 218 AUDIO
    TITLE "26:cjc024_2784"
    INDEX 01 03:50:53
  TRACK 219 AUDIO
    TITLE "0:"
    INDEX 01 03:52:01
  TRACK 220 AUDIO
    TITLE "26:cjc024_2785"
    INDEX 01 03:52:60
  TRACK 221 AUDIO
    TITLE "0:"
    INDEX 01 03:54:00
  TRACK 222 AUDIO
    TITLE "26:cjc024_2786"
    INDEX 01 03:55:01
  TRACK 223 AUDIO
    TITLE "0:"
    INDEX 01 03:56:69
  TRACK 224 AUDIO
    TITLE "26:cjc024_2787"
    INDEX 01 03:57:20
  TRACK 225 AUDIO
    TITLE "0:"
    INDEX 01 03:58:31
  TRACK 226 AUDIO
    TITLE "26:cjc024_2788"
    INDEX 01 03:59:28
  TRACK 227 AUDIO
    TITLE "0:"
    INDEX 01 04:01:12
  TRACK 228 AUDIO
    TITLE "26:cjc024_2789"
    INDEX 01 04:01:39
  TRACK 229 AUDIO
    TITLE "0:"
    INDEX 01 04:02:68
  TRACK 230 AUDIO
    TITLE "26:cjc024_2790"
    INDEX 01 04:04:00
  TRACK 231 AUDIO
    TITLE "0:"
    INDEX 01 04:05:37
  TRACK 232 AUDIO
    TITLE "26:cjc024_2791"
    INDEX 01 04:05:64
  TRACK 233 AUDIO
    TITLE "0:"
    INDEX 01 04:07:30
  TRACK 234 AUDIO
    TITLE "26:cjc024_2792"
    INDEX 01 04:08:37
  TRACK 235 AUDIO
    TITLE "0:"
    INDEX 01 04:09:68
  TRACK 236 AUDIO
    TITLE "26:cjc024_2793"
    INDEX 01 04:10:17
  TRACK 237 AUDIO
    TITLE "0:"
    INDEX 01 04:11:59
  TRACK 238 AUDIO
    TITLE "26:cjc024_2794"
    INDEX 01 04:12:59
  TRACK 239 AUDIO
    TITLE "0:"
    INDEX 01 04:14:54
  TRACK 240 AUDIO
    TITLE "26:cjc024_2795"
    INDEX 01 04:15:02
  TRACK 241 AUDIO
    TITLE "0:"
    INDEX 01 04:16:33
